<?xml version="1.0" encoding="UTF-8" standalone="no"?>
<svg width="120px" height="31px" viewBox="0 0 120 31" version="1.1" xmlns="http://www.w3.org/2000/svg" xmlns:xlink="http://www.w3.org/1999/xlink">
    <!-- Generator: Sketch 40.1 (33804) - http://www.bohemiancoding.com/sketch -->
    <title>logo_extrategy</title>
    <desc>Created with Sketch.</desc>
    <defs></defs>
    <g id="Page-1" stroke="none" stroke-width="1" fill="none" fill-rule="evenodd">
        <g id="logo_extrategy">
            <g id="Group">
                <g id="Shape">
                    <g>
                        <polygon fill="#0080AF" points="26.6312292 3.72690167 22.4850498 3.72690167 14.2325581 17.1918367 18.2591362 17.1918367"></polygon>
                        <path d="M12.4385382,15.5888683 C11.6810631,16.2701299 9.88704319,17.5925788 7.13621262,17.5925788 C6.25913621,17.5925788 4.1461794,17.4723562 2.35215947,15.7892393 C0.797342193,14.3465677 0.239202658,12.4630798 0.239202658,10.3792208 C0.239202658,9.25714286 0.398671096,8.17513915 0.837209302,7.13320965 C1.43521595,5.77068646 3.06976744,3.32615955 6.97674419,3.32615955 C9.96677741,3.32615955 11.5614618,4.8890538 12.2392027,5.9309833 C12.8372093,6.89276438 13.4750831,8.53580705 13.5548173,11.1406308 L3.62790698,11.1406308 C3.66777409,11.5413729 3.82724252,12.3829314 4.50498339,13.1844156 C4.94352159,13.7454545 5.7807309,14.4667904 7.41528239,14.4667904 C9.089701,14.4667904 10.0465116,13.6653061 10.4850498,13.2244898 C10.6046512,13.1042672 10.7641196,12.9038961 10.923588,12.6233766 L13.6744186,14.2263451 C13.4352159,14.4667904 13.076412,14.9877551 12.4385382,15.5888683 M9.72757475,7.61410019 C9.44850498,6.9729128 8.73089701,5.89090909 6.97674419,5.89090909 C6.29900332,5.89090909 5.90033223,6.01113173 5.62126246,6.13135436 C4.10631229,6.73246753 3.78737542,8.25528757 3.7076412,8.73617811 L9.96677741,8.73617811 C10.0066445,8.73617811 9.9269103,8.09499072 9.72757475,7.61410019" fill="#0080AF"></path>
                        <path d="M34.2059801,17.3120594 C32.4518272,17.3120594 31.5348837,16.871243 30.9767442,16.2300557 C30.6976744,15.909462 30.6179402,15.5888683 30.5780731,15.4285714 C30.4584718,14.9877551 30.4186047,14.0660482 30.4186047,12.8638219 L30.4186047,6.01113173 L28.4651163,6.01113173 L28.4651163,3.72690167 L30.4186047,3.72690167 L30.4186047,0 L33.6478405,0 L33.6478405,3.72690167 L36.5182724,3.72690167 L36.5182724,6.01113173 L33.6478405,6.01113173 L33.6478405,12.1424861 C33.6478405,12.6634508 33.5681063,13.7053803 33.9667774,14.1461967 C34.3255814,14.587013 35.1229236,14.5469388 35.2026578,14.5469388 C35.641196,14.5469388 36.1196013,14.5068646 36.5182724,14.3866419 L36.5182724,17.1116883 C36.0797342,17.1517625 35.282392,17.3120594 34.2059801,17.3120594" fill="#0080AF"></path>
                        <path d="M42.6179402,9.21706865 C42.3787375,9.97847866 42.3787375,10.6597403 42.3787375,11.4211503 L42.3787375,17.1918367 L39.269103,17.1918367 L39.269103,3.72690167 L42.3787375,3.72690167 L42.3787375,5.61038961 C42.5780731,5.2096475 42.8571429,4.80890538 43.1760797,4.48831169 C44.2524917,3.44638219 46.0066445,3.36623377 46.3654485,3.36623377 L46.6445183,3.36623377 L46.6445183,6.69239332 C45.9667774,6.73246753 43.3754153,6.73246753 42.6179402,9.21706865" fill="#0080AF"></path>
                        <path d="M56.6112957,17.1918367 L56.5315615,16.1499072 C56.013289,16.5907236 55.5747508,16.7910946 55.2956811,16.9113173 C54.4186047,17.3120594 53.5813953,17.5124304 52.5847176,17.5124304 C51.9468439,17.5124304 49.5149502,17.432282 48.2790698,15.4285714 C48.0797342,15.0679035 47.6810631,14.3465677 47.6810631,13.264564 C47.6810631,12.503154 47.8803987,11.0204082 49.5149502,9.89833024 C50.6312292,9.13692022 51.6677741,8.97662338 52.9036545,8.73617811 C54.89701,8.33543599 55.6146179,8.17513915 56.6112957,7.81447124 C56.6112957,7.45380334 56.5714286,7.01298701 56.4119601,6.69239332 C56.1328904,6.17142857 55.4551495,5.77068646 54.2990033,5.77068646 C53.0631229,5.77068646 52.3056478,6.13135436 51.9468439,6.6122449 C51.5880399,7.05306122 51.5880399,7.61410019 51.5880399,7.81447124 L48.3189369,7.61410019 C48.358804,7.01298701 48.4385382,5.61038961 49.7541528,4.5283859 C50.5913621,3.8471243 51.8272425,3.28608534 54.179402,3.28608534 C56.372093,3.28608534 57.6478405,3.72690167 58.4850498,4.32801484 C59.0431894,4.72875696 59.3621262,5.2096475 59.4418605,5.41001855 C59.8006645,6.09128015 59.8006645,7.05306122 59.8006645,7.81447124 L59.8006645,14.9877551 C59.8006645,16.0296846 59.8405316,16.3102041 60.3986711,17.1517625 L56.6112957,17.1517625 L56.6112957,17.1918367 Z M56.6112957,10.4994434 C56.0930233,10.7799629 55.3754153,11.0204082 54.0598007,11.2608534 C53.3421927,11.3810761 52.5448505,11.4211503 51.9069767,11.8218924 C51.4684385,12.1024119 51.1096346,12.5833024 51.1096346,13.1844156 C51.1096346,13.9858998 51.7076412,14.787384 53.3023256,14.787384 C55.0564784,14.787384 56.1328904,13.8656772 56.4119601,13.264564 C56.6112957,12.8237477 56.6112957,12.4630798 56.6112957,12.0222635 L56.6112957,10.4994434 L56.6112957,10.4994434 Z" fill="#0080AF"></path>
                        <path d="M67.4152824,17.3120594 C65.6611296,17.3120594 64.744186,16.871243 64.1860465,16.2300557 C63.9069767,15.909462 63.8272425,15.5888683 63.7873754,15.4285714 C63.6677741,14.9877551 63.627907,14.0660482 63.627907,12.8638219 L63.627907,6.01113173 L61.6744186,6.01113173 L61.6744186,3.72690167 L63.627907,3.72690167 L63.627907,0 L66.8571429,0 L66.8571429,3.72690167 L69.7275748,3.72690167 L69.7275748,6.01113173 L66.8571429,6.01113173 L66.8571429,12.1424861 C66.8571429,12.6634508 66.7774086,13.7053803 67.1760797,14.1461967 C67.5348837,14.587013 68.3322259,14.5469388 68.4119601,14.5469388 C68.8504983,14.5469388 69.3289037,14.5068646 69.7275748,14.3866419 L69.7275748,17.1116883 C69.2890365,17.1517625 68.4916944,17.3120594 67.4152824,17.3120594" fill="#0080AF"></path>
                        <path d="M83.0431894,15.5888683 C82.2857143,16.2701299 80.4916944,17.5925788 77.7408638,17.5925788 C76.8637874,17.5925788 74.7508306,17.4723562 72.9568106,15.7892393 C71.4418605,14.3465677 70.8837209,12.4630798 70.8837209,10.3792208 C70.8837209,9.25714286 71.0431894,8.17513915 71.4817276,7.13320965 C72.0797342,5.77068646 73.7142857,3.32615955 77.6212625,3.32615955 C80.6112957,3.32615955 82.2059801,4.8890538 82.8837209,5.9309833 C83.4817276,6.89276438 84.1196013,8.53580705 84.1993355,11.1406308 L74.2724252,11.1406308 C74.3122924,11.5413729 74.4717608,12.3829314 75.1495017,13.1844156 C75.5880399,13.7454545 76.4252492,14.4667904 78.0598007,14.4667904 C79.7342193,14.4667904 80.6910299,13.6653061 81.1295681,13.2244898 C81.2491694,13.1042672 81.4086379,12.9038961 81.5681063,12.6233766 L84.3189369,14.2263451 C84.0797342,14.4667904 83.6810631,14.9877551 83.0431894,15.5888683 M80.372093,7.61410019 C80.0930233,6.9729128 79.3754153,5.89090909 77.6212625,5.89090909 C76.9435216,5.89090909 76.5448505,6.01113173 76.2657807,6.13135436 C74.7508306,6.73246753 74.4318937,8.25528757 74.3521595,8.73617811 L80.6112957,8.73617811 C80.6511628,8.73617811 80.5714286,8.09499072 80.372093,7.61410019" fill="#0080AF"></path>
                        <path d="M98.1129568,19.6363636 C97.2757475,20.7584416 95.5215947,21.6801484 92.4916944,21.6801484 C89.5016611,21.6801484 88.0265781,20.83859 87.1893688,19.6764378 C86.8704319,19.1955473 86.6312292,18.6345083 86.3521595,17.4723562 L89.9003322,17.5124304 C89.9800664,17.7929499 90.0199336,17.9532468 90.2192691,18.193692 C90.89701,19.2356215 92.372093,19.1955473 92.6511628,19.1955473 C94.2458472,19.1955473 95.0830565,18.5944341 95.4418605,17.9131725 C95.8006645,17.2319109 95.8006645,16.5105751 95.8006645,14.9877551 C94.2857143,16.3502783 92.4119601,16.4304267 91.7342193,16.4304267 C90.9368771,16.4304267 90.0598007,16.3102041 89.3023256,15.9495362 C87.8671096,15.348423 85.9534884,13.7053803 85.9534884,10.0185529 C85.9534884,9.57773655 85.9534884,8.33543599 86.3920266,7.13320965 C87.3089701,4.76883117 89.461794,3.32615955 92.013289,3.32615955 C92.4518272,3.32615955 93.7674419,3.36623377 94.8438538,4.20779221 C95.3222591,4.56846011 95.6810631,5.00927644 95.8006645,5.16957328 L95.8006645,3.72690167 L98.9900332,3.72690167 L98.9900332,14.787384 C98.9501661,16.3502783 99.1096346,18.2738404 98.1129568,19.6363636 M95.641196,8.49573284 C95.4418605,7.77439703 94.6843854,6.17142857 92.5315615,6.17142857 C92.0930233,6.17142857 91.0166113,6.25157699 90.1395349,7.21335807 C89.1827243,8.25528757 89.2225914,9.45751391 89.2225914,9.89833024 C89.2225914,10.3391466 89.2225914,11.5012987 90.0996678,12.4630798 C90.2192691,12.5833024 90.538206,12.9038961 90.9767442,13.1042672 C91.255814,13.2244898 91.7740864,13.4649351 92.5714286,13.4649351 C93.8471761,13.4649351 94.5647841,12.9439703 94.9634551,12.5432282 C95.8803987,11.6215213 95.8803987,10.4593692 95.8803987,10.0185529 C95.8405316,9.25714286 95.7209302,8.81632653 95.641196,8.49573284" fill="#0080AF"></path>
                        <path d="M109.833887,15.4686456 C109.355482,17.1517625 108.637874,19.9970315 107.401993,21.038961 C106.564784,21.7202226 105.727575,21.8404453 104.651163,21.8404453 C103.614618,21.8404453 103.255814,21.7602968 102.737542,21.6400742 L102.737542,18.8348794 C104.013289,18.9951763 104.730897,18.8348794 105.249169,18.4341373 C105.647841,18.0734694 105.767442,17.6326531 105.807309,17.4723562 L100.943522,3.72690167 L104.41196,3.72690167 L107.401993,13.7855288 L109.913621,3.72690167 L113.222591,3.72690167 L109.833887,15.4686456 L109.833887,15.4686456 Z" fill="#0080AF"></path>
                        <polygon fill="#DEDC00" points="16.9833887 0 12.8372093 0 26.2325581 21.6400742 30.2591362 21.6400742"></polygon>
                    </g>
                    <g transform="translate(32.292359, 23.643785)" fill="#979A9C">
                        <path d="M2.87043189,3.96734694 L3.46843854,3.96734694 C3.38870432,4.40816327 3.14950166,4.76883117 2.87043189,5.04935065 C2.55149502,5.32987013 2.19269103,5.45009276 1.75415282,5.45009276 C1.27574751,5.45009276 0.916943522,5.32987013 0.677740864,5.04935065 C0.438538206,4.76883117 0.318936877,4.36808905 0.318936877,3.8471243 C0.318936877,3.52653061 0.358803987,3.24601113 0.478405316,2.96549165 C0.558139535,2.68497217 0.717607973,2.4445269 0.916943522,2.20408163 C1.11627907,2.00371058 1.31561462,1.84341373 1.55481728,1.72319109 C1.79401993,1.60296846 2.03322259,1.56289425 2.31229236,1.56289425 C2.75083056,1.56289425 3.06976744,1.68311688 3.3089701,1.92356215 C3.54817276,2.16400742 3.66777409,2.48460111 3.66777409,2.92541744 L3.06976744,2.92541744 C3.06976744,2.68497217 2.99003322,2.48460111 2.87043189,2.32430427 C2.71096346,2.16400742 2.51162791,2.12393321 2.27242525,2.12393321 C1.91362126,2.12393321 1.6345515,2.28423006 1.35548173,2.64489796 C1.11627907,3.00556586 0.956810631,3.40630798 0.956810631,3.88719852 C0.956810631,4.20779221 1.03654485,4.44823748 1.19601329,4.64860853 C1.35548173,4.84897959 1.55481728,4.8890538 1.83388704,4.8890538 C2.0730897,4.8890538 2.27242525,4.80890538 2.4717608,4.64860853 C2.63122924,4.48831169 2.79069767,4.24786642 2.87043189,3.96734694 L2.87043189,3.96734694 Z"></path>
                        <path d="M4.38538206,3.88719852 C4.38538206,3.20593692 4.58471761,2.64489796 4.94352159,2.20408163 C5.30232558,1.76326531 5.7807309,1.56289425 6.37873754,1.56289425 C6.85714286,1.56289425 7.21594684,1.68311688 7.4551495,1.96363636 C7.73421927,2.24415584 7.8538206,2.60482375 7.8538206,3.08571429 C7.8538206,3.76697588 7.65448505,4.32801484 7.29568106,4.72875696 C6.93687708,5.16957328 6.45847176,5.36994434 5.86046512,5.36994434 C5.3820598,5.36994434 5.02325581,5.24972171 4.74418605,4.96920223 C4.46511628,4.68868275 4.38538206,4.36808905 4.38538206,3.88719852 L4.38538206,3.88719852 Z M6.29900332,2.12393321 C6.09966777,2.12393321 5.94019934,2.16400742 5.7807309,2.24415584 C5.62126246,2.32430427 5.50166113,2.4445269 5.3820598,2.64489796 C5.26245847,2.80519481 5.18272425,3.00556586 5.10299003,3.24601113 C5.02325581,3.4864564 4.9833887,3.72690167 4.9833887,3.92727273 C4.9833887,4.24786642 5.06312292,4.48831169 5.22259136,4.64860853 C5.3820598,4.80890538 5.58139535,4.8890538 5.86046512,4.8890538 C6.25913621,4.8890538 6.57807309,4.72875696 6.81727575,4.36808905 C7.05647841,4.00742115 7.17607973,3.56660482 7.17607973,3.04564007 C7.17607973,2.72504638 7.09634551,2.52467532 6.93687708,2.36437848 C6.81727575,2.20408163 6.57807309,2.12393321 6.29900332,2.12393321 L6.29900332,2.12393321 Z"></path>
                        <path d="M11.0431894,5.32987013 L11.1229236,4.8890538 C10.9634551,5.08942486 10.7641196,5.2096475 10.5647841,5.32987013 C10.3654485,5.41001855 10.166113,5.45009276 9.9269103,5.45009276 C9.48837209,5.45009276 9.16943522,5.32987013 8.93023256,5.04935065 C8.6910299,4.76883117 8.57142857,4.40816327 8.57142857,3.92727273 C8.57142857,3.60667904 8.61129568,3.32615955 8.73089701,3.04564007 C8.81063123,2.76512059 8.97009967,2.52467532 9.12956811,2.28423006 C9.28903654,2.083859 9.5282392,1.88348794 9.72757475,1.76326531 C9.96677741,1.64304267 10.2059801,1.60296846 10.4451827,1.60296846 C10.6843854,1.60296846 10.923588,1.64304267 11.1229236,1.76326531 C11.3222591,1.88348794 11.4817276,2.04378479 11.6013289,2.28423006 L12,0.320593692 L12.5980066,0.320593692 L11.5614618,5.32987013 L11.0431894,5.32987013 L11.0431894,5.32987013 Z M11.4019934,3.1257885 C11.4019934,2.80519481 11.3222591,2.56474954 11.1627907,2.40445269 C11.0033223,2.24415584 10.8039867,2.12393321 10.5249169,2.12393321 C10.166113,2.12393321 9.84717608,2.28423006 9.60797342,2.64489796 C9.36877076,3.00556586 9.20930233,3.44638219 9.20930233,3.96734694 C9.20930233,4.28794063 9.28903654,4.5283859 9.44850498,4.68868275 C9.60797342,4.84897959 9.80730897,4.96920223 10.0465116,4.96920223 C10.4451827,4.96920223 10.7641196,4.80890538 11.0033223,4.44823748 C11.2425249,4.08756957 11.4019934,3.64675325 11.4019934,3.1257885 L11.4019934,3.1257885 Z"></path>
                        <path d="M12.7574751,5.32987013 L13.5149502,1.68311688 L14.1129568,1.68311688 L13.3554817,5.32987013 L12.7574751,5.32987013 L12.7574751,5.32987013 Z M13.6744186,1.0419295 L13.833887,0.320593692 L14.4318937,0.320593692 L14.2724252,1.0419295 L13.6744186,1.0419295 L13.6744186,1.0419295 Z"></path>
                        <path d="M14.551495,5.32987013 L15.3089701,1.68311688 L15.8671096,1.68311688 L15.7475083,2.24415584 C15.9468439,2.04378479 16.1461794,1.88348794 16.3853821,1.80333952 C16.5847176,1.72319109 16.8239203,1.64304267 17.0631229,1.64304267 C17.3820598,1.64304267 17.6212625,1.72319109 17.7807309,1.84341373 C17.9401993,1.96363636 18.0199336,2.16400742 18.0199336,2.4445269 L18.0199336,2.64489796 C18.0199336,2.72504638 17.9800664,2.80519481 17.9800664,2.88534323 L17.461794,5.32987013 L16.8637874,5.32987013 L17.3820598,2.96549165 C17.3820598,2.88534323 17.4219269,2.80519481 17.4219269,2.72504638 L17.4219269,2.56474954 C17.4219269,2.4445269 17.3820598,2.32430427 17.2624585,2.24415584 C17.1827243,2.16400742 17.0232558,2.12393321 16.8637874,2.12393321 C16.5049834,2.12393321 16.2259136,2.24415584 15.986711,2.48460111 C15.7475083,2.72504638 15.5880399,3.04564007 15.5083056,3.4864564 L15.1096346,5.32987013 L14.551495,5.32987013 L14.551495,5.32987013 Z"></path>
                        <path d="M18.6179402,5.69053803 L19.2159468,5.69053803 L19.2159468,5.73061224 C19.2159468,5.89090909 19.2956811,6.05120594 19.4152824,6.13135436 C19.5747508,6.25157699 19.7740864,6.29165121 20.013289,6.29165121 C20.4119601,6.29165121 20.6910299,6.21150278 20.8504983,6.01113173 C21.0099668,5.81076067 21.1694352,5.45009276 21.2491694,4.8890538 C21.1295681,5.04935065 20.9700997,5.16957328 20.7707641,5.24972171 C20.6112957,5.32987013 20.4119601,5.36994434 20.1727575,5.36994434 C19.7342193,5.36994434 19.3754153,5.24972171 19.1362126,4.96920223 C18.89701,4.68868275 18.7774086,4.32801484 18.7774086,3.8471243 C18.7774086,3.20593692 18.9767442,2.64489796 19.3355482,2.24415584 C19.6943522,1.80333952 20.1328904,1.60296846 20.6910299,1.60296846 C20.9700997,1.60296846 21.2093023,1.68311688 21.3687708,1.80333952 C21.5681063,1.92356215 21.6877076,2.083859 21.807309,2.32430427 L21.9269103,1.72319109 L22.5249169,1.72319109 L21.7674419,5.41001855 C21.6478405,5.89090909 21.4883721,6.29165121 21.1694352,6.49202226 C20.8903654,6.73246753 20.4916944,6.85269017 19.9734219,6.85269017 C19.5348837,6.85269017 19.2159468,6.77254174 18.9368771,6.57217069 C18.7375415,6.33172542 18.6179402,6.05120594 18.6179402,5.69053803 L18.6179402,5.69053803 L18.6179402,5.69053803 Z M20.6910299,2.12393321 C20.3322259,2.12393321 20.013289,2.28423006 19.7740864,2.60482375 C19.5348837,2.92541744 19.4152824,3.36623377 19.4152824,3.88719852 C19.4152824,4.20779221 19.4950166,4.44823748 19.654485,4.60853432 C19.8139535,4.76883117 20.013289,4.84897959 20.2923588,4.84897959 C20.6910299,4.84897959 21.0099668,4.68868275 21.2491694,4.32801484 C21.4883721,4.00742115 21.6079734,3.56660482 21.6079734,3.00556586 C21.6079734,2.72504638 21.5282392,2.48460111 21.3687708,2.32430427 C21.2093023,2.20408163 20.9700997,2.12393321 20.6910299,2.12393321 L20.6910299,2.12393321 Z"></path>
                        <path d="M26.3920266,5.32987013 C26.3122924,5.36994434 26.2325581,5.36994434 26.1528239,5.36994434 L25.9534884,5.36994434 C25.7142857,5.36994434 25.5149502,5.32987013 25.3953488,5.2096475 C25.2757475,5.12949907 25.1960133,4.96920223 25.1960133,4.76883117 L25.1960133,4.60853432 C25.1960133,4.5283859 25.2358804,4.44823748 25.2358804,4.32801484 L25.7142857,2.12393321 L25.1960133,2.12393321 L25.3156146,1.64304267 L25.833887,1.64304267 L26.0332226,0.641187384 L26.6312292,0.641187384 L26.4318937,1.64304267 L27.0697674,1.64304267 L26.9501661,2.12393321 L26.3122924,2.12393321 L25.833887,4.36808905 C25.833887,4.40816327 25.7940199,4.48831169 25.7940199,4.5283859 L25.7940199,4.64860853 C25.7940199,4.72875696 25.833887,4.76883117 25.8737542,4.80890538 C25.9136213,4.84897959 25.9933555,4.84897959 26.0730897,4.84897959 L26.2724252,4.84897959 C26.3521595,4.84897959 26.3920266,4.84897959 26.4717608,4.80890538 L26.3920266,5.32987013 L26.3920266,5.32987013 Z"></path>
                        <path d="M27.269103,3.88719852 C27.269103,3.20593692 27.4684385,2.64489796 27.8272425,2.20408163 C28.1860465,1.76326531 28.6644518,1.56289425 29.2624585,1.56289425 C29.7408638,1.56289425 30.0996678,1.68311688 30.3388704,1.96363636 C30.6179402,2.24415584 30.7375415,2.60482375 30.7375415,3.08571429 C30.7375415,3.76697588 30.538206,4.32801484 30.179402,4.72875696 C29.820598,5.16957328 29.3421927,5.36994434 28.744186,5.36994434 C28.2657807,5.36994434 27.9069767,5.24972171 27.627907,4.96920223 C27.3488372,4.68868275 27.269103,4.36808905 27.269103,3.88719852 L27.269103,3.88719852 Z M29.1827243,2.12393321 C28.9833887,2.12393321 28.8239203,2.16400742 28.6644518,2.24415584 C28.5049834,2.32430427 28.3853821,2.4445269 28.2657807,2.64489796 C28.1461794,2.80519481 28.0664452,3.00556586 27.986711,3.24601113 C27.9069767,3.4864564 27.8671096,3.72690167 27.8671096,3.92727273 C27.8671096,4.24786642 27.9468439,4.48831169 28.1063123,4.64860853 C28.2657807,4.80890538 28.4651163,4.8890538 28.744186,4.8890538 C29.1428571,4.8890538 29.461794,4.72875696 29.7009967,4.36808905 C29.9401993,4.00742115 30.0598007,3.56660482 30.0598007,3.04564007 C30.0598007,2.72504638 29.9800664,2.52467532 29.820598,2.36437848 C29.7009967,2.20408163 29.5016611,2.12393321 29.1827243,2.12393321 L29.1827243,2.12393321 Z"></path>
                        <path d="M33.4086379,4.04749536 L33.9667774,4.04749536 L33.9667774,4.08756957 L33.9667774,4.167718 C33.9667774,4.40816327 34.0465116,4.60853432 34.2059801,4.72875696 C34.3654485,4.84897959 34.6046512,4.92912801 34.923588,4.92912801 C35.1627907,4.92912801 35.3222591,4.8890538 35.4817276,4.76883117 C35.6013289,4.68868275 35.6810631,4.5283859 35.6810631,4.36808905 C35.6810631,4.24786642 35.641196,4.167718 35.5614618,4.08756957 C35.4817276,4.00742115 35.3222591,3.88719852 35.0431894,3.76697588 C35.0033223,3.72690167 34.923588,3.72690167 34.8438538,3.68682746 C34.166113,3.36623377 33.8471761,3.00556586 33.8471761,2.60482375 C33.8471761,2.28423006 33.9667774,2.04378479 34.2059801,1.84341373 C34.4451827,1.64304267 34.7641196,1.56289425 35.1627907,1.56289425 C35.6013289,1.56289425 35.9202658,1.68311688 36.1594684,1.88348794 C36.3986711,2.083859 36.5182724,2.40445269 36.5182724,2.76512059 L36.5182724,2.84526902 L35.9601329,2.84526902 L35.9601329,2.80519481 C35.9601329,2.56474954 35.8803987,2.36437848 35.7607973,2.24415584 C35.641196,2.12393321 35.4418605,2.04378479 35.1627907,2.04378479 C34.923588,2.04378479 34.7641196,2.083859 34.6445183,2.16400742 C34.5249169,2.24415584 34.4451827,2.36437848 34.4451827,2.52467532 C34.4451827,2.72504638 34.6445183,2.88534323 35.0431894,3.08571429 L35.0830565,3.08571429 C35.6013289,3.32615955 35.9601329,3.52653061 36.0797342,3.68682746 C36.1993355,3.8471243 36.2790698,4.04749536 36.2790698,4.24786642 C36.2790698,4.60853432 36.1594684,4.8890538 35.8803987,5.08942486 C35.6013289,5.28979592 35.2425249,5.41001855 34.8039867,5.41001855 C34.3654485,5.41001855 34.0066445,5.28979592 33.7674419,5.08942486 C33.5282392,4.84897959 33.3687708,4.56846011 33.3687708,4.167718 L33.3687708,4.08756957 C33.4086379,4.08756957 33.4086379,4.08756957 33.4086379,4.04749536 L33.4086379,4.04749536 Z"></path>
                        <path d="M37.1162791,5.32987013 L38.192691,0.320593692 L38.7906977,0.320593692 L38.3920266,2.20408163 C38.5913621,2.00371058 38.7906977,1.88348794 38.9900332,1.76326531 C39.1893688,1.68311688 39.4285714,1.60296846 39.6677741,1.60296846 C39.986711,1.60296846 40.2259136,1.68311688 40.3853821,1.80333952 C40.5448505,1.92356215 40.6245847,2.12393321 40.6245847,2.40445269 L40.6245847,2.60482375 C40.6245847,2.68497217 40.5847176,2.76512059 40.5847176,2.84526902 L40.0664452,5.32987013 L39.4684385,5.32987013 L39.986711,2.96549165 C40.0265781,2.88534323 40.0265781,2.80519481 40.0265781,2.72504638 L40.0265781,2.52467532 C40.0265781,2.40445269 39.986711,2.32430427 39.8671096,2.24415584 C39.7873754,2.16400742 39.627907,2.12393321 39.4684385,2.12393321 C39.1096346,2.12393321 38.8305648,2.24415584 38.5913621,2.48460111 C38.3521595,2.72504638 38.192691,3.04564007 38.1129568,3.4864564 L37.7142857,5.32987013 L37.1162791,5.32987013 L37.1162791,5.32987013 Z"></path>
                        <path d="M43.4152824,4.92912801 C43.255814,5.08942486 43.0963455,5.24972171 42.89701,5.32987013 C42.6976744,5.41001855 42.4983389,5.45009276 42.2591362,5.45009276 C41.9003322,5.45009276 41.6212625,5.36994434 41.4219269,5.16957328 C41.2225914,4.96920223 41.1428571,4.68868275 41.1428571,4.36808905 C41.1428571,3.96734694 41.2624585,3.68682746 41.5016611,3.4864564 C41.7408638,3.28608534 42.179402,3.20593692 42.7375415,3.16586271 L42.7774086,3.16586271 C43.4152824,3.1257885 43.7740864,2.92541744 43.7740864,2.60482375 C43.7740864,2.4445269 43.7342193,2.32430427 43.6146179,2.24415584 C43.4950166,2.16400742 43.3355482,2.12393321 43.0963455,2.12393321 C42.7774086,2.12393321 42.538206,2.16400742 42.3787375,2.24415584 C42.2591362,2.32430427 42.1395349,2.48460111 42.0996678,2.72504638 L41.5016611,2.72504638 C41.5813953,2.32430427 41.7408638,2.04378479 41.9800664,1.84341373 C42.2591362,1.64304267 42.6179402,1.56289425 43.0564784,1.56289425 C43.4950166,1.56289425 43.8139535,1.64304267 44.013289,1.80333952 C44.2524917,1.96363636 44.372093,2.16400742 44.372093,2.4445269 L44.372093,2.56474954 C44.372093,2.60482375 44.3322259,2.72504638 44.3322259,2.84526902 L44.013289,4.40816327 C44.013289,4.44823748 43.9734219,4.5283859 43.9734219,4.56846011 L43.9734219,4.72875696 C43.9734219,4.80890538 44.013289,4.84897959 44.0531561,4.8890538 C44.0930233,4.92912801 44.1727575,4.92912801 44.2524917,4.92912801 L44.3322259,4.92912801 L44.4119601,4.92912801 L44.3322259,5.36994434 C44.2923588,5.36994434 44.2126246,5.41001855 44.1727575,5.41001855 L43.9734219,5.41001855 C43.8139535,5.41001855 43.6943522,5.36994434 43.6146179,5.28979592 C43.4551495,5.16957328 43.4152824,5.08942486 43.4152824,4.92912801 L43.4152824,4.92912801 Z M43.6146179,3.4864564 C43.4152824,3.56660482 43.1760797,3.60667904 42.89701,3.60667904 C42.5780731,3.64675325 42.4186047,3.64675325 42.2990033,3.68682746 C42.1395349,3.72690167 41.9800664,3.80705009 41.9003322,3.88719852 C41.820598,4.00742115 41.7807309,4.12764378 41.7807309,4.28794063 C41.7807309,4.44823748 41.820598,4.60853432 41.9401993,4.72875696 C42.0598007,4.84897959 42.179402,4.8890538 42.3787375,4.8890538 C42.7375415,4.8890538 43.0166113,4.76883117 43.2159468,4.5283859 C43.4152824,4.32801484 43.5747508,3.96734694 43.6146179,3.4864564 L43.6146179,3.4864564 Z"></path>
                        <path d="M45.089701,5.32987013 L45.8471761,1.68311688 L46.4451827,1.68311688 L46.2857143,2.36437848 C46.4850498,2.083859 46.6843854,1.88348794 46.8039867,1.76326531 C46.9634551,1.64304267 47.1229236,1.60296846 47.282392,1.60296846 L47.4019934,1.60296846 C47.4418605,1.60296846 47.4817276,1.60296846 47.5614618,1.64304267 L47.4019934,2.32430427 L47.4019934,2.32430427 L47.2026578,2.32430427 C46.8837209,2.32430427 46.6445183,2.4445269 46.4850498,2.64489796 C46.2857143,2.84526902 46.166113,3.16586271 46.0465116,3.60667904 L45.6877076,5.36994434 L45.089701,5.36994434 L45.089701,5.32987013 Z"></path>
                        <path d="M50.8704319,4.12764378 C50.7906977,4.5283859 50.5913621,4.84897959 50.2724252,5.08942486 C49.9534884,5.32987013 49.5946844,5.45009276 49.1561462,5.45009276 C48.6777409,5.45009276 48.3189369,5.32987013 48.0797342,5.04935065 C47.8405316,4.76883117 47.6810631,4.36808905 47.6810631,3.88719852 C47.6810631,3.20593692 47.8405316,2.64489796 48.1993355,2.24415584 C48.5581395,1.80333952 48.9966777,1.60296846 49.5548173,1.60296846 C49.9933555,1.60296846 50.3521595,1.72319109 50.6312292,2.00371058 C50.910299,2.28423006 51.0299003,2.64489796 51.0299003,3.08571429 L51.0299003,3.36623377 C51.0299003,3.4864564 50.9900332,3.60667904 50.9900332,3.72690167 L48.3189369,3.72690167 L48.3189369,3.72690167 L48.3189369,3.92727273 C48.3189369,4.24786642 48.3986711,4.48831169 48.5581395,4.68868275 C48.717608,4.84897959 48.9568106,4.92912801 49.2757475,4.92912801 C49.5149502,4.92912801 49.7142857,4.84897959 49.9136213,4.72875696 C50.0730897,4.60853432 50.192691,4.40816327 50.2724252,4.167718 L50.8704319,4.167718 L50.8704319,4.12764378 Z M48.4385382,3.20593692 L50.4318937,3.20593692 L50.4318937,3.1257885 L50.4318937,3.04564007 C50.4318937,2.76512059 50.3521595,2.52467532 50.192691,2.36437848 C50.0332226,2.20408163 49.833887,2.12393321 49.5946844,2.12393321 C49.3156146,2.12393321 49.0365449,2.20408163 48.8372093,2.40445269 C48.6378738,2.56474954 48.5182724,2.84526902 48.4385382,3.20593692 L48.4385382,3.20593692 Z"></path>
                    </g>
                </g>
                <path d="M117.368771,3.40630798 C117.687708,3.40630798 118.006645,3.4864564 118.325581,3.60667904 C118.644518,3.72690167 118.883721,3.92727273 119.122924,4.167718 C119.362126,4.40816327 119.521595,4.68868275 119.641196,4.96920223 C119.760797,5.28979592 119.840532,5.5703154 119.840532,5.9309833 C119.840532,6.25157699 119.760797,6.57217069 119.641196,6.89276438 C119.521595,7.17328386 119.322259,7.45380334 119.122924,7.69424861 C118.883721,7.93469388 118.604651,8.09499072 118.285714,8.25528757 C117.966777,8.41558442 117.687708,8.45565863 117.328904,8.45565863 C117.009967,8.45565863 116.69103,8.3755102 116.372093,8.25528757 C116.093023,8.13506494 115.813953,7.93469388 115.574751,7.69424861 C115.335548,7.45380334 115.17608,7.17328386 115.056478,6.89276438 C114.936877,6.6122449 114.857143,6.29165121 114.857143,5.97105751 C114.857143,5.65046382 114.936877,5.32987013 115.056478,5.00927644 C115.17608,4.68868275 115.375415,4.40816327 115.614618,4.167718 C115.853821,3.92727273 116.093023,3.76697588 116.372093,3.64675325 C116.69103,3.4864564 117.009967,3.40630798 117.368771,3.40630798 L117.368771,3.40630798 Z M119.521595,5.9309833 C119.521595,5.61038961 119.481728,5.32987013 119.362126,5.08942486 C119.242525,4.80890538 119.122924,4.60853432 118.923588,4.40816327 C118.724252,4.20779221 118.48505,4.04749536 118.20598,3.92727273 C117.92691,3.80705009 117.647841,3.76697588 117.368771,3.76697588 C117.089701,3.76697588 116.810631,3.80705009 116.531561,3.92727273 C116.292359,4.04749536 116.053156,4.167718 115.853821,4.36808905 C115.654485,4.56846011 115.495017,4.80890538 115.375415,5.08942486 C115.255814,5.36994434 115.215947,5.61038961 115.215947,5.89090909 C115.215947,6.17142857 115.255814,6.45194805 115.375415,6.69239332 C115.495017,6.93283859 115.654485,7.17328386 115.853821,7.37365492 C116.053156,7.57402597 116.292359,7.73432282 116.531561,7.85454545 C116.810631,7.97476809 117.049834,8.0148423 117.328904,8.0148423 C117.607973,8.0148423 117.887043,7.97476809 118.166113,7.85454545 C118.445183,7.73432282 118.684385,7.57402597 118.883721,7.37365492 C119.083056,7.17328386 119.242525,6.93283859 119.362126,6.69239332 C119.44186,6.49202226 119.521595,6.21150278 119.521595,5.9309833 L119.521595,5.9309833 Z M117.408638,4.44823748 C117.807309,4.44823748 118.086379,4.5283859 118.285714,4.64860853 C118.48505,4.76883117 118.564784,4.96920223 118.564784,5.2096475 C118.564784,5.41001855 118.524917,5.5703154 118.405316,5.69053803 C118.285714,5.81076067 118.126246,5.89090909 117.92691,5.9309833 L118.564784,7.21335807 L117.966777,7.21335807 L117.408638,6.01113173 L116.890365,6.01113173 L116.890365,7.21335807 L116.372093,7.21335807 L116.372093,4.40816327 L117.408638,4.40816327 L117.408638,4.44823748 Z M117.328904,4.80890538 L116.890365,4.80890538 L116.890365,5.73061224 L117.328904,5.73061224 C117.568106,5.73061224 117.767442,5.69053803 117.887043,5.61038961 C118.006645,5.53024119 118.046512,5.41001855 118.046512,5.24972171 C118.046512,5.08942486 118.006645,4.96920223 117.887043,4.8890538 C117.767442,4.84897959 117.568106,4.80890538 117.328904,4.80890538 L117.328904,4.80890538 Z" id="Shape" fill="#979A9C"></path>
            </g>
        </g>
    </g>
</svg>