<?xml version="1.0" encoding="UTF-8" standalone="no"?>
<svg width="667px" height="179px" viewBox="0 0 667 179" version="1.1" xmlns="http://www.w3.org/2000/svg" xmlns:xlink="http://www.w3.org/1999/xlink">
    <!-- Generator: Sketch 3.7.2 (28276) - http://www.bohemiancoding.com/sketch -->
    <title>logo-extrategy</title>
    <desc>Created with Sketch.</desc>
    <defs></defs>
    <g id="Page-1" stroke="none" stroke-width="1" fill="none" fill-rule="evenodd">
        <g id="logo-extrategy">
            <path d="M57,44.8 C55.3,41 51.2,34.7 40.9,34.7 C38.1974595,34.6051255 35.5053589,35.0822066 33,36.1 C24.2,39.7 22.1,48.6 21.6,51.2 L58.5,51.2 C58.2091844,48.9807367 57.6725553,46.8006812 56.9,44.7 M72.7,91.3 C64.1530171,99.0153811 53.0135371,103.22839 41.5,103.1 C36.5,103.1 24,102.5 13.2,92.5 C4.2,84 0.9,73.1 0.9,60.8 C0.783185488,54.328684 1.97361705,47.9003535 4.4,41.9 C7.9,34 17.7,19.5 40.5,19.5 C58.2,19.5 67.5,28.7 71.6,34.6 C75.7,40.5 78.9,49.7 79.3,65.1 L21.1,65.1 C21.5899088,69.5126717 23.3630688,73.6848128 26.2,77.1 C28.9,80.4 33.6,84.7 43.4,84.7 C53.2,84.7 58.9,80.1 61.4,77.4 C62.4135626,76.289526 63.3177425,75.0839529 64.1,73.8 L80.2,83.1 C78.0651951,86.0851552 75.6180142,88.8340434 72.9,91.3" id="Shape" fill="#017EAC"></path>
            <path d="M200.9,101.4 C190.5,101.4 185.1,98.9 182,95.1 C180.85097,93.77566 180.028914,92.2000523 179.6,90.5 C178.8,88 178.6,82.5 178.6,75.5 L178.6,35.3 L167.2,35.3 L167.2,21.9 L178.7,21.9 L178.7,2.84217094e-14 L197.6,2.84217094e-14 L197.6,21.9 L214.5,21.9 L214.5,35.3 L197.6,35.3 L197.6,71.1 C197.6,74.2 197.1,80.2 199.5,82.8 C201.9,85.4 206.3,85.2 206.8,85.2 C209.394443,85.2276567 211.981869,84.9252303 214.5,84.3 L214.5,100.2 C210.007863,100.989979 205.460448,101.424659 200.9,101.5" id="Shape" fill="#017EAC"></path>
            <path d="M250.5,54.1 C249.1,58.5 249.1,62.5 249.1,67 L249.1,100.8 L230.8,100.8 L230.8,21.9 L249.1,21.9 L249.1,33.1 C250.29894,30.6898439 251.886884,28.4937514 253.8,26.6 C260.1,20.4 270.4,20.1 272.6,20.1 L274.2,20.1 L274.2,39.5 C270.3,39.5 255.1,39.5 250.5,54" id="Shape" fill="#017EAC"></path>
            <path d="M333,61.5 C329.8,63.1 325.7,64.7 318,65.9 C313.7,66.7 309.2,66.9 305.2,69.2 C302.388917,70.8459764 300.643944,73.8427778 300.6,77.1 C300.6,81.8 304.1,86.4 313.5,86.4 C322.9,86.4 330.1,81 331.8,77.4 C333.5,73.8 332.9,72.7 332.9,70.1 L332.9,61.4 L333,61.5 Z M333,100.8 L332.5,94.6 C330.322099,96.4538394 327.856391,97.9400191 325.2,99 C320.236922,101.376864 314.802869,102.607215 309.3,102.6 C305.5,102.6 291.3,102.1 284,90.4 C281.600403,86.644134 280.381308,82.2553906 280.5,77.8 C280.5,73.4 281.6,64.5 291.2,58.1 C297.7,53.7 303.8,52.7 311.1,51.3 C322.8,48.9 327,48 332.9,45.9 C333.016548,43.6787611 332.64093,41.4592042 331.8,39.4 C330.2,36.4 326.3,34 319.3,34 C312.3,34 307.5,36.2 305.4,38.9 C303.891281,40.8717369 303.145527,43.3220742 303.3,45.8 L284,44.7 C284.2,41.2 284.8,32.9 292.5,26.6 C297.4,22.5 304.8,19.3 318.5,19.3 C332.2,19.3 339,22 343.9,25.5 C346.26791,27.1237725 348.220527,29.2819277 349.6,31.8 C351.7,35.9 351.7,41.4 351.7,45.8 L351.7,87.8 C351.7,93.8 352,95.5 355.2,100.6 L333,100.6 L333,100.8 Z" id="Shape" fill="#017EAC"></path>
            <path d="M396.5,101.4 C386.1,101.4 380.7,98.9 377.6,95.1 C376.45097,93.77566 375.628914,92.2000523 375.2,90.5 C374.4,88 374.2,82.5 374.2,75.5 L374.2,35.3 L362.7,35.3 L362.7,21.9 L374.2,21.9 L374.2,2.84217094e-14 L393.1,2.84217094e-14 L393.1,21.9 L410,21.9 L410,35.3 L393.1,35.3 L393.1,71.1 C393.1,74.2 392.6,80.2 395,82.8 C397.4,85.4 401.8,85.2 402.3,85.2 C404.894443,85.2276567 407.481869,84.9252303 410,84.3 L410,100.2 C405.507863,100.989979 400.960448,101.424659 396.4,101.5" id="Shape" fill="#017EAC"></path>
            <path d="M472.8,44.8 C471.1,41 467,34.7 456.7,34.7 C453.997459,34.6051255 451.305359,35.0822066 448.8,36.1 C440,39.7 437.9,48.6 437.4,51.2 L474.3,51.2 C474.009184,48.9807367 473.472555,46.8006812 472.7,44.7 M488.5,91.3 C479.953017,99.0153811 468.813537,103.22839 457.3,103.1 C452.3,103.1 439.8,102.5 429.1,92.5 C420.1,84 416.8,73.1 416.8,60.8 C416.683185,54.328684 417.873617,47.9003535 420.3,41.9 C423.8,34 433.6,19.5 456.4,19.5 C474.1,19.5 483.4,28.7 487.5,34.6 C491.6,40.5 494.8,49.7 495.2,65.1 L436.8,65.1 C437.289909,69.5126717 439.063069,73.6848128 441.9,77.1 C444.6,80.4 449.3,84.7 459.1,84.7 C468.9,84.7 474.6,80.1 477.1,77.4 C478.113563,76.289526 479.017742,75.0839529 479.8,73.8 L495.9,83.1 C493.76342,86.0837363 491.316399,88.8324442 488.6,91.3" id="Shape" fill="#017EAC"></path>
            <path d="M562.6,50 C561.3,45.7 557.1,36.4 544.3,36.4 C538.993344,36.3227252 533.903805,38.5039565 530.3,42.4 C524.8,48.4 524.9,55.7 524.9,58.2 C524.9,60.7 524.9,67.5 529.9,73.2 C531.380588,74.7372315 533.103498,76.020969 535,77 C537.958613,78.4340239 541.212604,79.1533271 544.5,79.1 C552.1,79.1 556.3,76.1 558.5,73.7 C563.9,68.3 563.9,61.4 563.9,58.9 C563.987691,55.9130333 563.54761,52.9340246 562.6,50.1 M577.1,115.3 C572.2,121.9 562,127.3 544.1,127.3 C526.2,127.3 517.7,122.4 512.9,115.5 C511,112.7 509.6,109.3 508,102.6 L528.8,102.8 C529.14337,104.222276 529.791656,105.552968 530.7,106.7 C534.8,112.7 543.5,112.5 544.9,112.5 C554.4,112.5 559.3,108.9 561.3,105.1 C563.3,101.3 563.4,96.9 563.4,88.1 C554.6,96 543.5,96.5 539.6,96.5 C534.655573,96.6004653 529.746518,95.6459268 525.2,93.7 C516.8,90.1 505.5,80.6 505.5,59 C505.5,56.5 505.5,49.1 508.2,42.1 C513.6,28.4 526.4,19.8 541.2,19.8 C543.9,19.8 551.5,20.1 557.9,24.9 C560.028028,26.4917555 561.885236,28.4164984 563.4,30.6 L563.4,22.2 L582.2,22.2 L582.2,86.7 C582.2,95.9 583.1,107.1 577.2,115.1" id="Shape" fill="#017EAC"></path>
            <path d="M646.2,90.7 C643.4,100.5 639.3,117.2 631.8,123.2 C626.9,127.2 621.9,127.9 615.7,127.9 C611.93501,128.013148 608.171036,127.643472 604.5,126.8 L604.5,110.4 C612.1,111.4 616.3,110.4 619.2,108 C620.8322,106.462372 621.979252,104.481101 622.5,102.3 L593.9,21.8 L614.3,21.8 L632,80.7 L646.8,21.8 L666.2,21.8 L646.2,90.7 Z" id="Shape" fill="#017EAC"></path>
            <g id="Group" transform="translate(191.000000, 140.000000)" fill="#666666">
                <path d="M15.7,21.9 L19.2,21.9 C18.7470972,24.3467306 17.4780172,26.5676205 15.6,28.2 C13.7527959,29.743583 11.4064622,30.5612447 9,30.5 C6.2,30.5 4.1,29.7 2.7,28.1 C1.3,26.5 0.6,24.1333333 0.6,21 C0.590335263,19.2270997 0.895050167,17.4665247 1.5,15.8 C2.07860665,14.1811658 2.96108415,12.6877424 4.1,11.4 C5.12021423,10.214201 6.38160667,9.25963376 7.8,8.6 C9.21155459,7.94966516 10.7458617,7.60870803 12.3,7.6 C14.4531917,7.46455296 16.5730151,8.18313716 18.2,9.6 C19.6835499,11.1587624 20.4765754,13.2494659 20.4,15.4 L16.8,15.4 C16.8809041,14.1020206 16.4086055,12.8304472 15.5,11.9 C14.5565781,11.0120906 13.2942978,10.5432436 12,10.6 C9.81422773,10.6439208 7.79203886,11.7673591 6.6,13.6 C5.04355002,15.7102012 4.23429426,18.2787086 4.3,20.9 C4.19320534,22.4749365 4.65442589,24.0359907 5.6,25.3 C6.54076361,26.3370614 7.90265265,26.8891785 9.3,26.8 C10.6937342,26.8050623 12.0426866,26.3080799 13.1,25.4 C14.2908548,24.3673041 15.1588299,23.013263 15.6,21.5" id="Shape"></path>
                <path d="M35.8,10.9 C34.7570341,10.8772268 33.7251836,11.117992 32.8,11.6 C31.8245193,12.1596266 31.0006111,12.9492053 30.4,13.9 C29.685497,15.0110046 29.1458725,16.2251596 28.8,17.5 C28.4087249,18.8317683 28.2067457,20.2119591 28.2,21.6 C28.0863131,23.1140563 28.5508639,24.6149127 29.5,25.8 C30.4952976,26.8182736 31.8775317,27.3638923 33.3,27.3 C35.5522511,27.304805 37.6562219,26.1776778 38.9,24.3 C40.4393614,21.9979003 41.2095642,19.2671813 41.1,16.5 C41.2023041,15.0008539 40.6978377,13.5234879 39.7,12.4 C38.6131415,11.407771 37.1683997,10.9021113 35.7,11 M24.3,21.4 C24.1487018,17.8374249 25.3245824,14.3454157 27.6,11.6 C29.7048347,9.10238083 32.8351864,7.70292952 36.1,7.8 C38.4732874,7.68145978 40.789851,8.55017112 42.5,10.2 C44.1508826,11.9902465 45.0153357,14.3674923 44.9,16.8 C45.0358656,20.3299474 43.8603472,23.785259 41.6,26.5 C39.4951653,28.9976192 36.3648136,30.3970705 33.1,30.3 C30.6926537,30.4468357 28.3342802,29.5760517 26.6,27.9 C24.9598669,26.0689846 24.1302635,23.6523139 24.3,21.2" id="Shape"></path>
                <path d="M65.8,16.8 C65.8857849,15.2727229 65.3849942,13.7703508 64.4,12.6 C63.419945,11.5590139 62.0268491,11.0091076 60.6,11.1 C58.3592693,11.1325858 56.288155,12.2999412 55.1,14.2 C53.5554613,16.4622463 52.7837482,19.1632421 52.9,21.9 C52.805729,23.4117982 53.2681604,24.9058074 54.2,26.1 C55.1097396,27.121039 56.434416,27.6729875 57.8,27.6 C60.0976405,27.5801831 62.2346711,26.4179384 63.5,24.5 C65.0865546,22.2531724 65.894322,19.5489077 65.8,16.8 L65.8,16.8 Z M63.7,29.8 L64.1,27.1 C63.2116729,28.1393854 62.123444,28.9895643 60.9,29.6 C59.7424818,30.1414022 58.4777888,30.4148493 57.2,30.4 C54.9902344,30.5418889 52.8307086,29.7000399 51.3,28.1 C49.7944048,26.2426466 49.0445233,23.8858762 49.2,21.5 C49.1833263,19.7347823 49.4535116,17.9785774 50,16.3 C50.4963954,14.707188 51.2754875,13.2167508 52.3,11.9 C53.2873367,10.6955824 54.5129798,9.70825879 55.9,9 C57.2263702,8.2989481 58.6999174,7.92199416 60.2,7.9 C61.5662595,7.87666749 62.9135377,8.22212346 64.1,8.9 C65.3120629,9.62959099 66.3119032,10.6639085 67,11.9 L69.4,0.4 L72.9,0.4 L66.8,29.7 L63.7,29.7 L63.7,29.8 Z" id="Shape"></path>
            </g>
            <path d="M270.2,144.8 L271.1,140.5 L274.6,140.5 L273.7,144.8 L270.2,144.8 L270.2,144.8 Z M264.9,169.8 L269.4,148.5 L273,148.5 L268.5,169.8 L265,169.8 L264.9,169.8 Z" id="Shape" fill="#666666"></path>
            <g id="Group" transform="translate(275.000000, 140.000000)" fill="#666666">
                <path d="M0.5,29.8 L5,8.5 L8.3,8.5 L7.6,11.7 C8.6549661,10.5780441 9.90970153,9.66242635 11.3,9 C12.5856223,8.40739471 13.984371,8.10035231 15.4,8.1 C16.9283686,7.99667214 18.445994,8.42019551 19.7,9.3 C20.7014651,10.1384479 21.2558632,11.3950838 21.2,12.7 C21.1926248,13.1017403 21.1592214,13.5025803 21.1,13.9 C21,14.3 20.9,14.8 20.8,15.4 L17.8,29.8 L14.2,29.8 L17.2,15.9 L17.4,14.6 C17.4521417,14.2688162 17.4855283,13.9349508 17.5,13.6 C17.5487207,12.9043911 17.2489761,12.2299658 16.7,11.8 C15.9863119,11.3448467 15.1439146,11.1342473 14.3,11.2 C12.394778,11.1221249 10.5443947,11.8477654 9.2,13.2 C7.70841834,14.8886788 6.73614663,16.9721182 6.4,19.2 L4.2,29.9 L0.6,29.9 L0.5,29.8 Z" id="Shape"></path>
                <path d="M36.6,10.9 C34.4193856,10.8668504 32.3767235,11.9638356 31.2,13.8 C29.7114015,16.0463715 28.9759441,18.7080266 29.1,21.4 C28.9962025,22.9129217 29.459665,24.4102621 30.4,25.6 C31.380055,26.6409861 32.7731509,27.1908924 34.2,27.1 C36.4067718,27.1297377 38.4778773,26.0377003 39.7,24.2 C41.2041452,21.8861153 41.9390966,19.1562959 41.8,16.4 C41.8753469,14.9347505 41.3726428,13.4984532 40.4,12.4 C39.3738925,11.3659498 37.954567,10.8200555 36.5,10.9 L36.6,10.9 Z M24.2,31.9 L27.7,31.9 L27.7,32.2 C27.6876703,33.1713446 28.1796816,34.0796732 29,34.6 C30.0154806,35.2386797 31.2015249,35.5526326 32.4,35.5 C34.6666667,35.5 36.3333333,34.9333333 37.4,33.8 C38.4666667,32.6666667 39.2666667,30.5 39.8,27.3 C39.0377962,28.2030675 38.0803618,28.9211433 37,29.4 C35.8969509,29.8813702 34.7033416,30.120092 33.5,30.1 C31.2128704,30.2347008 28.982178,29.3570513 27.4,27.7 C25.8432393,25.8266391 25.0567949,23.4315586 25.2,21 C25.0762747,17.5496106 26.2138826,14.1723371 28.4,11.5 C30.2984603,9.07292079 33.2187902,7.66820513 36.3,7.7 C37.7440809,7.66417874 39.1677828,8.04614752 40.4,8.8 C41.5654174,9.54070959 42.4735004,10.6234239 43,11.9 L43.8,8.4 L47.3,8.4 L42.8,30.1 C42.5734968,32.616891 41.3431344,34.9365774 39.3864581,36.535784 C37.4297817,38.1349906 34.9116127,38.8790077 32.4,38.6 C30.2510189,38.7203247 28.1278697,38.0833799 26.4,36.8 C24.9226048,35.6145255 24.1042345,33.7917916 24.2,31.9 L24.2,31.9 L24.2,31.9 Z" id="Shape"></path>
                <path d="M70.1,29.8 L68.7,30.1 L67.6,30.1 C66.3987084,30.1802216 65.2042788,29.8640491 64.2,29.2 C63.4370813,28.5602668 63.0278639,27.5930256 63.1,26.6 C63.1112335,26.2648254 63.1446398,25.9307619 63.2,25.6 L63.5,24 L66.2,11.2 L63.1,11.2 L63.8,8.3 L66.8,8.3 L68,2.5 L71.7,2.5 L70.5,8.3 L74.2,8.3 L73.6,11.2 L69.9,11.2 L67.1,24.4 L66.9,25.3 C66.853746,25.4976309 66.8203427,25.6980505 66.8,25.9 C66.7661165,26.2494142 66.9179356,26.5910071 67.2,26.8 C67.5582508,27.0242884 67.9783488,27.1293129 68.4,27.1 L69.5,27.1 L70.7,26.9 L70.1,29.8 Z" id="Shape"></path>
                <path d="M86.6,10.9 C85.5570341,10.8772268 84.5251836,11.117992 83.6,11.6 C82.6245193,12.1596266 81.8006111,12.9492053 81.2,13.9 C80.485497,15.0110046 79.9458725,16.2251596 79.6,17.5 C79.2087249,18.8317683 79.0067457,20.2119591 79,21.6 C78.8760391,23.1152008 79.3417398,24.6197724 80.3,25.8 C81.2952976,26.8182736 82.6775317,27.3638923 84.1,27.3 C86.3522511,27.304805 88.4562219,26.1776778 89.7,24.3 C91.2457349,22.0008448 92.016537,19.2680011 91.9,16.5 C92.0023041,15.0008539 91.4978377,13.5234879 90.5,12.4 C89.4131415,11.407771 87.9683997,10.9021113 86.5,11 M75.1,21.4 C74.9487018,17.8374249 76.1245824,14.3454157 78.4,11.6 C80.5048347,9.10238083 83.6351864,7.70292952 86.9,7.8 C89.2732874,7.68145978 91.589851,8.55017112 93.3,10.2 C94.9508826,11.9902465 95.8153357,14.3674923 95.7,16.8 C95.8358656,20.3299474 94.6603472,23.785259 92.4,26.5 C90.2951653,28.9976192 87.1648136,30.3970705 83.9,30.3 C81.4926537,30.4468357 79.1342802,29.5760517 77.4,27.9 C75.7598669,26.0689846 74.9302635,23.6523139 75.1,21.2" id="Shape"></path>
                <path d="M111.5,22.4 L114.9,22.4 L114.9,22.7 L114.9,23.2 C114.803817,24.4907855 115.322808,25.7511925 116.3,26.6 C117.535885,27.4298302 119.01601,27.8174819 120.5,27.7 C121.635581,27.7509239 122.757447,27.4353989 123.7,26.8 C124.48224,26.2562365 124.934333,25.3520502 124.9,24.4 C124.918385,23.7784336 124.704465,23.1723252 124.3,22.7 C123.376349,21.9283586 122.328029,21.3196564 121.2,20.9 L120.1,20.4 C116.166667,18.6 114.2,16.5333333 114.2,14.2 C114.144452,12.4513762 114.924134,10.7806307 116.3,9.7 C117.945092,8.48892066 119.960276,7.88790077 122,8 C124.104475,7.87372725 126.178139,8.55303085 127.8,9.9 C129.238218,11.2349626 130.007831,13.1406712 129.9,15.1 L129.9,15.6 L126.6,15.6 C126.687822,14.3793559 126.251372,13.1791187 125.4,12.3 C124.4198,11.4939282 123.165094,11.0995919 121.9,11.2 C120.809556,11.1471707 119.728707,11.4260993 118.8,12 C118.200536,12.3766814 117.797973,12.9988245 117.7,13.7 C117.7,14.7666667 118.866667,15.8333333 121.2,16.9 L121.4,16.9 C124.533333,18.3 126.466667,19.4333333 127.2,20.3 C128.017585,21.2396288 128.446661,22.4553432 128.4,23.7 C128.472018,25.6094082 127.614889,27.4354666 126.1,28.6 C124.26871,29.9050318 122.044319,30.5405722 119.8,30.4 C117.556096,30.5309385 115.344411,29.8174918 113.6,28.4 C112.055976,27.0405753 111.21037,25.0552402 111.3,23 L111.3,22.5 L111.3,22.2" id="Shape"></path>
                <path d="M133.2,29.8 L139.4,0.5 L142.9,0.5 L140.6,11.5 C141.597468,10.4521333 142.785272,9.60370177 144.1,9 C145.360628,8.44986265 146.724752,8.17703768 148.1,8.2 C149.629209,8.08838012 151.149569,8.51266668 152.4,9.4 C153.393419,10.2799608 153.912503,11.5776701 153.8,12.9 C153.790097,13.3016079 153.756707,13.7022924 153.7,14.1 C153.661146,14.5702189 153.594362,15.0377109 153.5,15.5 L150.4,29.9 L146.8,29.9 L149.8,16 C149.9,15.5 150,15 150.1,14.6 C150.157147,14.2358892 150.19055,13.8684469 150.2,13.5 C150.194646,12.8475066 149.85484,12.2434072 149.3,11.9 C148.583498,11.4514232 147.743302,11.2413742 146.9,11.3 C145.029122,11.2501941 143.220425,11.973673 141.9,13.3 C140.403575,14.9855005 139.430599,17.0704474 139.1,19.3 L136.8,30 L133.2,30 L133.2,29.8 Z" id="Shape"></path>
                <path d="M171.5,19.1 C170.110363,19.563476 168.663342,19.8326891 167.2,19.9 L163.7,20.3 C162.810894,20.4676832 162.002225,20.9247572 161.4,21.6 C160.851767,22.2768731 160.567537,23.1295617 160.6,24 C160.562739,24.937607 160.926392,25.8467406 161.6,26.5 C162.313321,27.1324126 163.248356,27.4560785 164.2,27.4 C166.066266,27.4737845 167.86635,26.7023197 169.1,25.3 C170.46776,23.5089197 171.268731,21.3497786 171.4,19.1 M170.3,27.4 C169.431187,28.366605 168.376984,29.1487558 167.2,29.7 C166.039306,30.2319218 164.776765,30.5049037 163.5,30.5 C161.737013,30.598228 160.00818,29.9859328 158.7,28.8 C157.504108,27.4977905 156.890275,25.7646157 157,24 C156.837243,22.0395413 157.662293,20.1269253 159.2,18.9 C160.666667,17.8333333 163.1,17.1666667 166.5,16.9 L166.8,16.9 C170.666667,16.6333333 172.6,15.5666667 172.6,13.7 C172.634972,12.9052569 172.256778,12.1488682 171.6,11.7 C170.643784,11.212071 169.569217,11.0040903 168.5,11.1 C167.086017,10.9889386 165.668513,11.2655248 164.4,11.9 C163.525085,12.6344679 162.95475,13.6681997 162.8,14.8 L159.3,14.8 C159.548861,12.809109 160.595473,11.0046052 162.2,9.8 C164.102695,8.57716027 166.341287,7.9825342 168.6,8.1 C170.584757,7.98497104 172.561387,8.43578138 174.3,9.4 C175.596674,10.1713914 176.364905,11.5926198 176.3,13.1 C176.284947,13.3686349 176.251535,13.6359254 176.2,13.9 L175.9,15.7 L174,24.7 C173.90996,24.994324 173.843089,25.2952425 173.8,25.6 C173.750509,25.8979838 173.717127,26.1984202 173.7,26.5 C173.684081,26.8462671 173.83231,27.1797812 174.1,27.4 C174.4212,27.6236447 174.809731,27.7296078 175.2,27.7 L176.1,27.7 L175.6,30.2 L174.6,30.4 L173.3,30.4 C172.503892,30.4586243 171.715855,30.207885 171.1,29.7 C170.581706,29.1700751 170.325295,28.4374745 170.4,27.7" id="Shape"></path>
                <path d="M180.1,29.8 L184.6,8.5 L188,8.5 L187.1,12.5 C187.979556,11.1751085 189.059019,9.99444595 190.3,9 C191.131265,8.35843723 192.149975,8.00715787 193.2,8 L194.8,8 L193.9,12 L192.7,12 C191.057355,11.9719213 189.485238,12.6665776 188.4,13.9 C187.083891,15.5494976 186.222044,17.5145086 185.9,19.6 L183.7,29.8 L180.2,29.8 L180.1,29.8 Z" id="Shape"></path>
                <path d="M199.9,17.3 L211.6,17.3 L211.6,16.9 L211.6,16.3 C211.676757,14.8822032 211.212083,13.4881835 210.3,12.4 C209.363553,11.4277106 208.047292,10.9158314 206.7,11 C205.082255,10.9483167 203.506679,11.5212535 202.3,12.6 C201.00666,13.8749072 200.134291,15.5149602 199.8,17.3 L199.9,17.3 Z M214.2,22.9 C213.792204,25.1206245 212.582083,27.1137643 210.8,28.5 C208.918689,29.8762561 206.629574,30.580599 204.3,30.5 C201.922913,30.6433703 199.596685,29.7710348 197.9,28.1 C196.433333,26.5 195.7,24.2 195.7,21.2 C195.535696,17.6994059 196.636006,14.256499 198.8,11.5 C200.729791,9.05712503 203.68721,7.65235117 206.8,7.7 C209.123196,7.55156318 211.397951,8.40985459 213.044048,10.055952 C214.690145,11.7020493 215.548437,13.976804 215.4,16.3 C215.4,16.8 215.4,17.4 215.3,18 C215.2,18.6 215.2,19.3 215.1,20.1 L199.3,20.1 C199.2,20.7 199.2,21.1 199.2,21.3 C199.082751,22.8922152 199.58423,24.4682908 200.6,25.7 C201.694618,26.7547977 203.183124,27.2993731 204.7,27.2 C206.034693,27.2378165 207.341561,26.8139676 208.4,26 C209.454877,25.1707913 210.195606,24.0067886 210.5,22.7 L214.1,22.7 L214.2,22.9 Z" id="Shape"></path>
            </g>
            <polygon id="Shape" fill="#CDCC00" points="99.6 0 75.3 0 154 126.8 177.8 126.8"></polygon>
            <g id="Group" transform="translate(83.000000, 21.000000)" fill="#017EAC">
                <polygon id="Shape" points="73.4 0.9 49.1 0.9 39.6 16.3 51.6 35.8"></polygon>
                <polygon id="Shape" points="0.4 79.8 24.2 79.8 39.6 55.2 27.6 35.8"></polygon>
            </g>
        </g>
    </g>
</svg>